<svg 
 xmlns="http://www.w3.org/2000/svg"
 xmlns:xlink="http://www.w3.org/1999/xlink"
 width="1123px" height="1602px">
<path fill-rule="evenodd"  fill="#c9a84c"
 d="M958.125,515.625 C949.547,515.625 941.864,511.813 936.661,505.797 C924.565,508.054 830.409,522.782 737.990,454.545 C641.258,383.124 584.625,407.462 562.500,431.841 L562.500,433.923 C562.204,433.572 561.898,433.220 561.588,432.868 C561.391,433.095 561.191,433.322 560.1000,433.548 L560.1000,432.216 C538.875,407.838 482.242,383.499 385.510,454.920 C293.091,523.157 198.935,508.429 186.839,506.172 C181.636,512.188 173.953,516.000 165.375,516.000 C149.704,516.000 137.000,503.296 137.000,487.625 C137.000,471.954 149.704,459.250 165.375,459.250 C176.869,459.250 186.760,466.089 191.220,475.915 C192.927,476.227 194.676,476.554 196.520,476.917 C288.519,495.014 358.250,420.965 370.511,410.926 C429.011,363.033 479.788,359.195 502.503,354.935 C514.382,352.707 516.393,337.797 560.1000,331.166 L560.1000,330.563 C607.093,337.078 608.984,352.307 620.997,354.560 C643.712,358.820 694.489,362.658 752.989,410.551 C765.251,420.590 834.981,494.639 926.980,476.542 C928.824,476.179 930.573,475.852 932.280,475.540 C936.740,465.713 946.631,458.875 958.125,458.875 C973.796,458.875 986.500,471.579 986.500,487.250 C986.500,502.921 973.796,515.625 958.125,515.625 ZM517.503,323.939 C539.588,203.890 522.502,125.969 522.502,125.969 C540.053,135.433 556.139,137.455 560.1000,137.866 L560.1000,137.592 C560.1000,137.592 579.954,136.942 600.998,125.594 C600.998,125.594 583.912,203.515 605.997,323.564 C605.997,323.564 576.753,311.406 562.500,314.204 L562.500,314.941 C548.921,310.874 517.503,323.939 517.503,323.939 ZM563.000,118.576 C563.000,118.868 563.000,119.031 563.000,119.014 C530.408,119.014 503.986,92.592 503.986,59.1000 C503.986,28.246 529.073,2.885 560.500,1.089 C560.500,0.784 560.500,0.608 560.500,0.611 C593.088,1.164 619.514,27.032 619.514,59.625 C619.514,91.379 594.432,117.264 563.000,118.576 ZM21.530,962.845 L159.095,962.845 L167.522,532.908 L175.094,962.845 L316.086,962.845 L167.522,531.909 L335.513,962.845 C335.513,962.845 296.829,1058.831 165.522,1058.831 C34.215,1058.831 0.531,962.845 0.531,962.845 L167.522,532.908 L21.530,962.845 ZM128.500,1129.518 C151.686,1129.518 170.482,1148.314 170.482,1171.500 C170.482,1178.891 168.565,1185.832 165.212,1191.864 L495.504,1547.758 L500.504,1560.756 L486.504,1554.757 L148.783,1208.258 C142.770,1211.583 135.858,1213.482 128.500,1213.482 C105.314,1213.482 86.518,1194.686 86.518,1171.500 C86.518,1148.314 105.314,1129.518 128.500,1129.518 ZM437.507,1395.781 C499.631,1352.251 513.503,1283.798 513.503,1283.798 L560.1000,1283.798 L560.1000,1283.422 L609.997,1283.422 C609.997,1283.422 623.869,1351.876 685.993,1395.406 C685.993,1395.406 606.370,1477.108 566.1000,1601.375 L566.1000,1411.404 L566.674,1409.069 C575.740,1406.951 582.500,1398.836 582.500,1389.125 C582.500,1377.803 573.322,1368.625 561.1000,1368.625 C561.691,1368.793 561.397,1368.963 561.101,1369.133 L561.085,1369.021 C549.957,1369.244 541.000,1378.318 541.000,1389.500 C541.000,1399.211 547.760,1407.326 556.826,1409.444 L556.500,1411.779 L556.500,1601.750 C517.130,1477.483 437.507,1395.781 437.507,1395.781 ZM639.996,1236.429 C643.489,1236.485 687.993,1236.429 687.993,1236.429 L687.993,1274.424 L562.500,1274.424 L562.500,1274.799 L435.507,1274.799 L435.507,1236.804 C435.507,1236.804 480.011,1236.860 483.504,1236.804 C486.998,1236.749 489.504,1230.805 489.504,1230.805 C489.504,1230.805 487.961,475.384 487.504,455.920 C487.047,436.456 504.503,441.922 504.503,441.922 C538.044,444.955 556.500,476.917 556.500,476.917 L554.501,1230.805 L560.1000,1230.805 L560.1000,1230.430 L568.999,1230.430 L566.1000,476.542 C566.1000,476.542 585.456,444.580 618.997,441.547 C618.997,441.547 636.453,436.081 635.996,455.545 C635.539,475.009 633.996,1230.430 633.996,1230.430 C633.996,1230.430 636.502,1236.374 639.996,1236.429 ZM958.288,1191.489 C954.935,1185.457 953.018,1178.516 953.018,1171.125 C953.018,1147.939 971.814,1129.143 994.1000,1129.143 C1018.186,1129.143 1036.982,1147.939 1036.982,1171.125 C1036.982,1194.311 1018.186,1213.107 994.1000,1213.107 C987.642,1213.107 980.730,1211.208 974.717,1207.883 L636.996,1554.382 L622.997,1560.381 L627.996,1547.383 L958.288,1191.489 ZM787.987,962.470 L955.978,531.534 L807.414,962.470 L948.406,962.470 L955.978,532.533 L964.405,962.470 L1101.970,962.470 L955.978,532.533 L1122.969,962.470 C1122.969,962.470 1089.285,1058.456 957.978,1058.456 C826.671,1058.456 787.987,962.470 787.987,962.470 Z"/>
</svg>